<svg width="8" height="8" viewBox="0 0 8 8" fill="none" xmlns="http://www.w3.org/2000/svg">
<path d="M5.05469 3.625L7.34961 1.33008C7.38216 1.29753 7.4082 1.25846 7.42773 1.21289C7.45378 1.16081 7.4668 1.10547 7.4668 1.04688C7.4668 0.994792 7.45378 0.945964 7.42773 0.900391C7.4082 0.848307 7.38216 0.802734 7.34961 0.763672L6.85156 0.275391C6.8125 0.236328 6.77018 0.207031 6.72461 0.1875C6.67904 0.167969 6.62695 0.158203 6.56836 0.158203C6.51628 0.158203 6.46419 0.167969 6.41211 0.1875C6.36654 0.207031 6.32422 0.236328 6.28516 0.275391L3.99023 2.57031L1.69531 0.275391C1.66276 0.242839 1.62044 0.216797 1.56836 0.197266C1.52279 0.171224 1.47396 0.158203 1.42188 0.158203C1.36328 0.158203 1.3112 0.171224 1.26562 0.197266C1.22005 0.216797 1.17773 0.242839 1.13867 0.275391L0.650391 0.763672C0.611328 0.802734 0.582031 0.848307 0.5625 0.900391C0.542969 0.945964 0.533203 0.994792 0.533203 1.04688C0.533203 1.10547 0.542969 1.16081 0.5625 1.21289C0.582031 1.25846 0.611328 1.29753 0.650391 1.33008L2.93555 3.625L0.650391 5.91992C0.611328 5.95247 0.582031 5.99479 0.5625 6.04688C0.542969 6.09245 0.533203 6.14453 0.533203 6.20312C0.533203 6.25521 0.542969 6.30729 0.5625 6.35938C0.582031 6.40495 0.611328 6.44727 0.650391 6.48633L1.13867 6.97461C1.17773 7.01367 1.22005 7.04297 1.26562 7.0625C1.31771 7.08203 1.36979 7.0918 1.42188 7.0918C1.48047 7.0918 1.53255 7.08203 1.57812 7.0625C1.63021 7.04297 1.67253 7.01367 1.70508 6.97461L4 4.67969L6.29492 6.97461C6.32747 7.01367 6.36654 7.04297 6.41211 7.0625C6.46419 7.08203 6.51953 7.0918 6.57812 7.0918C6.63021 7.0918 6.67904 7.08203 6.72461 7.0625C6.77669 7.04297 6.82227 7.01367 6.86133 6.97461L7.34961 6.48633C7.38867 6.44727 7.41797 6.40495 7.4375 6.35938C7.45703 6.30729 7.4668 6.25521 7.4668 6.20312C7.4668 6.14453 7.45703 6.09245 7.4375 6.04688C7.41797 5.99479 7.38867 5.94922 7.34961 5.91016L5.05469 3.625Z" fill="black"/>
</svg>
