<svg width="14" height="15" viewBox="0 0 14 15" fill="none" xmlns="http://www.w3.org/2000/svg">
<path d="M14 13.4531L10.8965 10.3633C11.2428 9.88021 11.5117 9.34245 11.7031 8.75C11.9036 8.15755 12.0039 7.5332 12.0039 6.87695C12.0039 6.04753 11.849 5.26823 11.5391 4.53906C11.2201 3.8099 10.7871 3.17643 10.2402 2.63867C9.70247 2.0918 9.06901 1.65885 8.33984 1.33984C7.61068 1.02995 6.83138 0.875 6.00195 0.875C5.17253 0.875 4.39323 1.02995 3.66406 1.33984C2.9349 1.65885 2.29688 2.0918 1.75 2.63867C1.21224 3.17643 0.783854 3.8099 0.464844 4.53906C0.154948 5.26823 0 6.04753 0 6.87695C0 7.70638 0.154948 8.48568 0.464844 9.21484C0.783854 9.94401 1.21224 10.582 1.75 11.1289C2.29688 11.6667 2.9349 12.0951 3.66406 12.4141C4.39323 12.724 5.17253 12.8789 6.00195 12.8789C6.6582 12.8789 7.28255 12.7832 7.875 12.5918C8.46745 12.3913 9.00977 12.1133 9.50195 11.7578L12.5918 14.875L14 13.4531ZM1.99609 6.87695C1.99609 6.32096 2.10091 5.80143 2.31055 5.31836C2.52018 4.83529 2.80729 4.41146 3.17188 4.04688C3.53646 3.68229 3.96029 3.39518 4.44336 3.18555C4.93555 2.97591 5.45508 2.87109 6.00195 2.87109C6.55794 2.87109 7.07747 2.97591 7.56055 3.18555C8.05273 3.39518 8.47656 3.68229 8.83203 4.04688C9.19661 4.41146 9.48372 4.83529 9.69336 5.31836C9.90299 5.80143 10.0078 6.32096 10.0078 6.87695C10.0078 7.43294 9.90299 7.95247 9.69336 8.43555C9.48372 8.91862 9.19661 9.34245 8.83203 9.70703C8.47656 10.0716 8.05273 10.3587 7.56055 10.5684C7.07747 10.778 6.55794 10.8828 6.00195 10.8828C5.45508 10.8828 4.93555 10.778 4.44336 10.5684C3.96029 10.3587 3.53646 10.0716 3.17188 9.70703C2.81641 9.34245 2.53385 8.91862 2.32422 8.43555C2.11458 7.95247 2.00521 7.43294 1.99609 6.87695Z" fill="#707070"/>
</svg>
