<svg width="6" height="8" viewBox="0 0 6 8" fill="none" xmlns="http://www.w3.org/2000/svg">
<path d="M4.78418 7.53223C4.76074 7.55566 4.7373 7.57617 4.71387 7.59375C4.68457 7.61133 4.65527 7.62891 4.62598 7.64648C4.59082 7.6582 4.55566 7.66699 4.52051 7.67285C4.48535 7.68457 4.4502 7.69043 4.41504 7.69043C4.37402 7.69043 4.33594 7.68457 4.30078 7.67285C4.26563 7.66699 4.2334 7.6582 4.2041 7.64648C4.1748 7.62891 4.14551 7.61133 4.11621 7.59375C4.08691 7.57617 4.06055 7.55566 4.03711 7.53223L0.829102 4.30664C0.805664 4.2832 0.785157 4.25684 0.767578 4.22754C0.744141 4.19824 0.726563 4.16894 0.714844 4.13965C0.697266 4.11035 0.685547 4.07519 0.679688 4.03418C0.673828 3.99902 0.670899 3.96387 0.670899 3.92871C0.670899 3.88769 0.673828 3.84961 0.679688 3.81445C0.685547 3.7793 0.697266 3.74707 0.714844 3.71777C0.726563 3.68262 0.744141 3.65039 0.767579 3.62109C0.785157 3.59766 0.805664 3.57422 0.829102 3.55078L4.0459 0.333984C4.09277 0.287109 4.14844 0.249023 4.21289 0.219726C4.27149 0.196289 4.33594 0.18457 4.40625 0.18457C4.41211 0.18457 4.41504 0.18457 4.41504 0.18457C4.45606 0.18457 4.49414 0.1875 4.5293 0.193359C4.56445 0.205078 4.59961 0.216797 4.63477 0.228515C4.66406 0.240234 4.69336 0.254883 4.72266 0.272461C4.74609 0.290039 4.76953 0.310547 4.79297 0.333984L5.17969 0.711914C5.20313 0.735351 5.22363 0.761719 5.24121 0.791015C5.25879 0.820312 5.27344 0.849609 5.28516 0.878906C5.30273 0.908203 5.31445 0.940429 5.32031 0.975586C5.32617 1.01074 5.3291 1.04883 5.3291 1.08984C5.3291 1.125 5.32617 1.16016 5.32031 1.19531C5.31445 1.23047 5.30273 1.2627 5.28516 1.29199C5.27344 1.32715 5.25879 1.35645 5.24121 1.37988C5.22363 1.40918 5.20313 1.43555 5.17969 1.45898L2.70996 3.9375L5.1709 6.39844C5.19434 6.42187 5.21484 6.44824 5.23242 6.47754C5.25 6.50684 5.26465 6.53613 5.27637 6.56543C5.29395 6.60059 5.30859 6.63281 5.32031 6.66211C5.32617 6.69727 5.3291 6.73535 5.3291 6.77637C5.3291 6.81738 5.32617 6.85547 5.32031 6.89062C5.31445 6.92578 5.30273 6.95801 5.28516 6.9873C5.27344 7.0166 5.25879 7.0459 5.24121 7.0752C5.22363 7.10449 5.2002 7.13086 5.1709 7.1543L4.79297 7.53223L4.78418 7.53223Z" fill="#555555"/>
</svg>
