<svg width="6" height="8" viewBox="0 0 6 8" fill="none" xmlns="http://www.w3.org/2000/svg">
<path d="M1.21582 0.467773C1.23926 0.444336 1.2627 0.423828 1.28613 0.40625C1.31543 0.388672 1.34473 0.371094 1.37402 0.353516C1.40918 0.341797 1.44434 0.333008 1.47949 0.327148C1.51465 0.31543 1.5498 0.30957 1.58496 0.30957C1.62598 0.30957 1.66406 0.31543 1.69922 0.327148C1.73438 0.333008 1.7666 0.341797 1.7959 0.353516C1.8252 0.371094 1.85449 0.388672 1.88379 0.40625C1.91309 0.423828 1.93945 0.444336 1.96289 0.467773L5.1709 3.69336C5.19434 3.7168 5.21484 3.74316 5.23242 3.77246C5.25586 3.80176 5.27344 3.83105 5.28516 3.86035C5.30273 3.88965 5.31445 3.9248 5.32031 3.96582C5.32617 4.00098 5.3291 4.03613 5.3291 4.07129C5.3291 4.1123 5.32617 4.15039 5.32031 4.18555C5.31445 4.2207 5.30273 4.25293 5.28516 4.28223C5.27344 4.31738 5.25586 4.34961 5.23242 4.37891C5.21484 4.40234 5.19434 4.42578 5.1709 4.44922L1.9541 7.66602C1.90723 7.71289 1.85156 7.75098 1.78711 7.78027C1.72852 7.80371 1.66406 7.81543 1.59375 7.81543C1.58789 7.81543 1.58496 7.81543 1.58496 7.81543C1.54395 7.81543 1.50586 7.8125 1.4707 7.80664C1.43555 7.79492 1.40039 7.7832 1.36523 7.77148C1.33594 7.75977 1.30664 7.74512 1.27734 7.72754C1.25391 7.70996 1.23047 7.68945 1.20703 7.66602L0.820312 7.28809C0.796875 7.26465 0.776367 7.23828 0.758789 7.20898C0.741211 7.17969 0.726562 7.15039 0.714844 7.12109C0.697266 7.0918 0.685547 7.05957 0.679688 7.02441C0.673828 6.98926 0.670898 6.95117 0.670898 6.91016C0.670898 6.875 0.673828 6.83984 0.679688 6.80469C0.685547 6.76953 0.697266 6.7373 0.714844 6.70801C0.726562 6.67285 0.741211 6.64355 0.758789 6.62012C0.776367 6.59082 0.796875 6.56445 0.820312 6.54102L3.29004 4.0625L0.829102 1.60156C0.805664 1.57813 0.785156 1.55176 0.767578 1.52246C0.75 1.49316 0.735352 1.46387 0.723633 1.43457C0.706055 1.39941 0.691406 1.36719 0.679688 1.33789C0.673828 1.30273 0.670898 1.26465 0.670898 1.22363C0.670898 1.18262 0.673828 1.14453 0.679688 1.10938C0.685547 1.07422 0.697266 1.04199 0.714844 1.0127C0.726562 0.983398 0.741211 0.954102 0.758789 0.924805C0.776367 0.895508 0.799805 0.869141 0.829102 0.845703L1.20703 0.467773H1.21582Z" fill="#555555"/>
</svg>
