<svg width="10" height="10" viewBox="0 0 10 10" fill="none" xmlns="http://www.w3.org/2000/svg">
<path d="M5.20508 9.03906L9.00391 5.24023C9.02995 5.21419 9.04948 5.1849 9.0625 5.15234C9.08203 5.11328 9.0918 5.07422 9.0918 5.03516C9.0918 4.98958 9.08203 4.95052 9.0625 4.91797C9.04948 4.87891 9.02995 4.84635 9.00391 4.82031L8.38867 4.21484C8.36263 4.1888 8.33008 4.16927 8.29102 4.15625C8.25846 4.13672 8.22266 4.12695 8.18359 4.12695C8.14453 4.12695 8.10547 4.13672 8.06641 4.15625C8.03385 4.16927 8.00456 4.1888 7.97852 4.21484L5.72266 6.46094V0.386719C5.72266 0.315104 5.69661 0.253255 5.64453 0.201172C5.59896 0.149089 5.54036 0.123047 5.46875 0.123047H4.53125C4.45964 0.123047 4.39779 0.149089 4.3457 0.201172C4.30013 0.253255 4.27734 0.315104 4.27734 0.386719V6.46094L2.02148 4.21484C1.99544 4.1888 1.96289 4.16927 1.92383 4.15625C1.89128 4.13672 1.85547 4.12695 1.81641 4.12695C1.77734 4.12695 1.73828 4.13672 1.69922 4.15625C1.66016 4.16927 1.6276 4.1888 1.60156 4.21484L0.996094 4.82031C0.970052 4.84635 0.947266 4.87891 0.927734 4.91797C0.914714 4.95052 0.908203 4.98958 0.908203 5.03516C0.908203 5.07422 0.914714 5.11328 0.927734 5.15234C0.947266 5.1849 0.970052 5.21419 0.996094 5.24023L4.79492 9.03906C4.82096 9.0651 4.85026 9.08464 4.88281 9.09766C4.92188 9.11719 4.96094 9.12695 5 9.12695C5.03906 9.12695 5.07487 9.11719 5.10742 9.09766C5.14648 9.08464 5.17904 9.0651 5.20508 9.03906Z" fill="black"/>
</svg>
